<?xml version="1.0" standalone="no"?>
<!DOCTYPE svg PUBLIC "-//W3C//DTD SVG 20010904//EN"
 "http://www.w3.org/TR/2001/REC-SVG-20010904/DTD/svg10.dtd">
<svg version="1.0" xmlns="http://www.w3.org/2000/svg"
 width="3492.000000pt" height="1184.000000pt" viewBox="0 0 3492.000000 1184.000000"
 preserveAspectRatio="xMidYMid meet">

<g transform="translate(0.000000,1184.000000) scale(0.100000,-0.100000)"
fill="#000000" stroke="none">
<path d="M17705 11633 c-211 -7 -534 -33 -710 -58 -16 -2 -68 -9 -115 -15 -47
-6 -123 -18 -170 -26 -47 -9 -110 -19 -140 -24 -30 -4 -95 -18 -145 -29 -111
-27 -169 -28 -370 -7 -515 54 -1170 32 -1620 -55 -104 -20 -363 -80 -425 -98
-125 -37 -145 -43 -201 -61 -611 -204 -1107 -515 -1406 -882 -157 -192 -286
-446 -353 -693 -12 -44 -26 -89 -31 -100 -27 -62 -53 -465 -29 -450 6 3 13 0
16 -8 3 -9 27 -18 57 -22 64 -10 60 -9 72 -16 6 -4 24 -6 40 -5 17 1 49 -1 73
-4 23 -4 42 -3 42 1 0 4 14 5 31 2 17 -2 29 -1 26 4 -6 10 65 9 82 -1 6 -4 11
-4 11 -1 0 88 81 406 130 511 10 23 22 54 26 68 3 14 10 26 14 26 4 0 13 15
21 33 15 37 134 201 193 267 103 113 336 304 430 352 23 11 55 31 71 44 39 29
289 154 387 193 42 17 96 39 120 50 59 27 258 93 408 135 151 43 278 70 453
97 73 11 142 22 155 26 37 9 24 -10 -35 -52 -166 -118 -351 -286 -473 -430
-63 -75 -87 -107 -177 -240 -19 -27 -56 -97 -84 -155 -28 -58 -57 -116 -64
-130 -22 -43 -74 -197 -94 -283 -124 -515 -84 -950 131 -1412 81 -176 198
-343 362 -515 80 -86 247 -237 302 -274 17 -11 65 -46 105 -77 189 -142 573
-360 874 -497 214 -97 315 -140 490 -210 284 -113 642 -243 765 -279 47 -13
94 -28 105 -33 11 -5 126 -43 255 -85 129 -42 246 -81 260 -85 14 -5 86 -28
160 -51 74 -22 189 -58 255 -79 66 -21 215 -68 330 -105 385 -121 1008 -328
1168 -387 513 -189 921 -389 1205 -591 359 -256 559 -493 652 -776 42 -126 51
-178 51 -297 0 -294 -98 -513 -335 -749 -76 -76 -147 -135 -228 -188 -64 -42
-121 -77 -126 -77 -6 0 -12 -4 -14 -9 -9 -23 -418 -205 -578 -257 -25 -8 -54
-19 -65 -23 -50 -21 -230 -72 -321 -92 -27 -5 -65 -14 -84 -19 -219 -53 -565
-102 -922 -130 -281 -22 -895 -27 -1139 -10 -79 5 -182 12 -229 15 -475 31
-1045 139 -1470 281 -74 25 -148 51 -165 59 -16 7 -76 32 -132 54 -275 111
-548 286 -734 471 -176 175 -285 369 -330 585 -16 77 -16 292 0 374 81 414
442 800 1016 1087 55 28 116 56 135 64 19 7 53 21 75 30 22 10 72 30 110 44
39 15 78 31 87 37 10 5 23 9 30 9 7 0 25 7 40 14 41 21 299 98 503 150 306 77
577 130 988 192 64 10 117 21 117 24 0 4 -33 16 -72 27 -71 20 -183 57 -223
74 -11 5 -40 16 -65 24 -166 58 -283 99 -330 115 -30 10 -113 39 -185 65 -71
26 -177 62 -235 81 l-105 35 -110 -26 c-107 -26 -169 -45 -420 -127 -313 -102
-564 -208 -820 -347 -396 -216 -765 -549 -947 -856 -171 -290 -242 -521 -255
-837 -9 -231 27 -478 93 -625 8 -17 14 -33 14 -36 0 -3 20 -49 45 -102 57
-120 121 -227 197 -327 64 -85 245 -272 323 -333 28 -22 52 -43 55 -46 3 -3
41 -32 85 -65 108 -82 161 -115 320 -204 122 -68 299 -150 485 -225 124 -50
303 -109 495 -164 148 -42 582 -132 755 -156 25 -3 70 -10 100 -15 94 -15 325
-39 560 -56 286 -22 1011 -25 1280 -6 283 20 729 71 855 97 17 3 84 17 150 31
324 68 736 189 930 274 28 13 70 31 95 42 318 138 601 323 815 534 223 220
377 456 453 694 109 340 116 611 26 955 -18 67 -16 61 -75 205 -199 484 -631
890 -1319 1242 -520 265 -907 409 -2185 813 -115 37 -340 109 -500 160 -159
52 -301 97 -315 100 -14 3 -34 10 -45 15 -11 4 -78 26 -150 48 -248 78 -466
152 -520 177 -16 7 -66 27 -110 43 -266 100 -444 169 -545 214 -63 28 -135 59
-160 70 -117 52 -354 168 -439 215 -51 29 -95 53 -97 53 -6 0 -200 126 -314
204 -146 100 -368 320 -457 451 -207 307 -283 644 -223 1000 25 148 44 217 86
320 35 86 90 192 110 213 7 6 16 22 20 35 18 59 215 271 354 382 242 193 548
350 920 472 171 56 530 149 683 177 216 39 259 46 377 60 831 99 1726 62 2425
-99 33 -8 74 -16 90 -18 32 -5 300 -72 350 -87 17 -6 68 -22 115 -36 108 -33
274 -90 297 -103 10 -5 56 -24 103 -41 47 -18 96 -38 110 -46 14 -7 52 -25 85
-39 96 -43 274 -152 366 -225 77 -61 178 -169 209 -223 38 -66 40 -123 5 -194
-46 -97 -203 -241 -357 -330 -132 -75 -306 -160 -413 -200 -22 -8 -53 -21 -70
-28 -57 -25 -245 -89 -365 -125 -41 -12 -86 -26 -100 -31 -14 -4 -70 -20 -125
-34 -55 -14 -134 -34 -175 -45 -41 -12 -115 -30 -165 -40 -49 -11 -121 -27
-160 -36 -104 -23 -453 -80 -595 -98 -640 -79 -1306 -93 -1765 -36 -225 28
-422 92 -494 159 -17 16 -31 37 -31 47 0 10 24 41 53 69 84 81 258 161 492
225 44 12 81 23 82 24 3 3 -25 219 -32 250 -3 11 -14 92 -25 178 -11 86 -23
164 -26 173 -8 19 -26 17 -214 -25 -315 -71 -534 -172 -704 -324 -106 -94
-186 -204 -226 -308 -40 -106 -51 -162 -52 -270 -1 -227 96 -417 283 -555 217
-160 627 -273 1079 -298 58 -3 123 -8 145 -10 22 -3 183 -10 358 -15 174 -5
338 -12 365 -15 26 -2 99 -10 162 -15 295 -28 672 -83 785 -115 28 -7 118 -27
200 -44 270 -54 580 -139 840 -228 139 -48 159 -58 136 -73 -12 -7 -220 -75
-426 -140 -34 -11 -288 -72 -415 -100 -229 -50 -375 -81 -456 -95 -146 -26
-394 -66 -469 -75 -38 -4 -160 -19 -270 -33 -287 -36 -400 -47 -485 -48 -41 0
-93 -3 -115 -8 -37 -6 -39 -8 -19 -19 12 -6 40 -14 63 -18 23 -4 44 -11 47
-15 3 -5 14 -9 25 -9 10 0 45 -8 76 -19 121 -39 312 -100 403 -129 52 -17 187
-59 300 -95 113 -36 246 -78 295 -92 50 -15 99 -31 110 -36 41 -17 117 -39
138 -40 52 -3 1020 220 1092 251 11 5 54 18 95 29 41 12 127 39 190 62 63 22
129 45 145 51 111 38 394 161 476 207 22 13 132 -61 226 -152 108 -104 127
-180 74 -285 -35 -69 -155 -187 -258 -255 -130 -86 -367 -200 -588 -282 -38
-14 -79 -30 -90 -34 -11 -5 -39 -14 -63 -22 -49 -14 -50 -31 -2 -40 18 -4 43
-12 56 -18 13 -6 34 -15 47 -20 156 -63 386 -178 589 -294 l46 -27 144 74
c315 160 504 310 647 514 117 168 165 317 165 512 -1 184 -41 314 -147 473
-38 58 -144 171 -206 221 l-35 28 71 67 c134 126 224 267 274 431 31 99 33
312 5 405 -54 181 -174 347 -349 484 -38 30 -65 57 -60 60 4 4 34 27 67 51
131 99 257 261 319 410 63 151 77 358 37 526 -70 298 -324 575 -760 830 -335
196 -982 430 -1450 524 -153 31 -355 68 -435 80 -515 76 -999 102 -1540 83z
m3190 -2912 c83 -38 203 -121 254 -176 112 -122 105 -209 -27 -340 -69 -67
-180 -155 -196 -155 -5 0 -17 6 -25 14 -9 7 -52 28 -96 46 -44 18 -105 43
-135 57 -60 27 -71 32 -235 92 -113 41 -381 126 -492 157 -35 9 -63 20 -63 24
0 4 19 10 42 14 23 4 62 13 87 21 25 7 107 30 181 50 192 53 442 138 541 184
46 22 87 40 92 40 4 1 37 -12 72 -28z"/>
</g>
</svg>
